<svg width="64" height="64" viewBox="0 0 64 64" fill="none" xmlns="http://www.w3.org/2000/svg">
<path d="M36.9 22.7L39.4 4.1C37 3.5 34.6 2 32 2C29.4 2 27 3.5 24.5 4.2C22 4.8 19.2 4.7 17 6C14.8 7.3 13.4 9.8 11.6 11.6C9.8 13.4 7.3 14.8 6 17C4.7 19.2 4.8 22 4.1 24.5C3.5 27 2 29.4 2 32C2 34.6 3.5 37 4.2 39.5C4.8 42 4.7 44.8 6 47C7.3 49.2 9.8 50.6 11.6 52.4C13.4 54.2 14.7 56.7 17 58C19.2 59.3 22 59.2 24.5 59.9C27 60.5 29.4 62 32 62C34.6 62 37 60.5 39.5 59.8C42 59.1 44.8 59.2 47 57.9C49.2 56.6 50.6 54.1 52.4 52.3C54.2 50.5 56.7 49.2 58 46.9C59.3 44.7 59.2 41.9 59.9 39.4C60.5 37 62 34.6 62 32C62 29.4 59.9 23.9 59.9 23.9L36.9 22.7Z" fill="#DDA85F"/>
<path d="M59.4 22.4C58.4 22.7 57 22.6 55.5 22C53.4 21.2 52.1 19.5 51.7 17.5C50.7 17.8 48.3 17.5 46.7 16.5C44.3 15 43.8 10.8 43.8 10.8C41.1 10 39.1 6.8 39.4 4.1C37.2 3.5 34.4 3.6 32 3.6C29.6 3.6 27.4 5 25.2 5.6C22.9 6.2 20.3 6.1 18.3 7.3C16.3 8.5 15 10.8 13.4 12.4C11.7 14.1 9.39998 15.3 8.29998 17.3C7.09998 19.3 7.19998 21.9 6.59998 24.2C5.99998 26.4 4.59998 28.6 4.59998 31C4.59998 33.4 5.99998 35.6 6.59998 37.8C7.19998 40.1 7.09998 42.7 8.29998 44.7C9.49998 46.7 11.8 48 13.4 49.6C15.1 51.3 16.3 53.6 18.3 54.7C20.3 55.9 22.9 55.8 25.2 56.4C27.4 57 29.6 58.4 32 58.4C34.4 58.4 36.6 57 38.8 56.4C41.1 55.8 43.7 55.9 45.7 54.7C47.7 53.5 49 51.2 50.6 49.6C52.3 47.9 54.6 46.7 55.7 44.7C56.9 42.7 56.8 40.1 57.4 37.8C58 35.6 60.4 33.8 60.7 31.4C61.5 27.5 59.5 23.1 59.4 22.4Z" fill="#F2CB7D"/>
<path d="M50.1 10.8L48.7 12.2L47.4 10.8L48.7 9.5L50.1 10.8Z" fill="#DDA85F"/>
<path d="M55.8 17.8L55.2 18.5L54.5 17.8L55.2 17.1L55.8 17.8Z" fill="#DDA85F"/>
<path d="M50.8 13.2L50.1 13.9L49.4 13.2L50.1 12.5L50.8 13.2Z" fill="#DDA85F"/>
<path d="M44.6 7.09999L43.9 7.79999L43.2 7.09999L43.9 6.39999L44.6 7.09999Z" fill="#DDA85F"/>
<path d="M57.2 20.3L56.5 21L55.8 20.3L56.5 19.6L57.2 20.3Z" fill="#DDA85F"/>
<path d="M57.8 17.8L57.1 18.5L56.4 17.8L57.1 17.1L57.8 17.8Z" fill="#DDA85F"/>
<path d="M11.8 20.6C10.8 22.3 12.3 25.4 14.3 26.3C17.2 27.5 18.9 27.7 20.7 24.6C21.3 23.5 22.1 20.6 21.8 19.9C21.4 18.9 19.7 16.9 18.6 16.9C15.5 17 12.5 19.4 11.8 20.6Z" fill="#6D4934"/>
<path d="M12.3 20.6C11.6 21.8 13.4 25.4 15.8 25.1C19.1 24.7 18.8 17.9 17.4 17.9C15 17.9 12.8 19.7 12.3 20.6Z" fill="#A37F6A"/>
<path d="M45.2 39.1C46.6 38.7 47.6 36.2 47 34.7C46.1 32.4 45.2 31.4 42.6 32.1C41.7 32.4 39.6 33.5 39.4 34C39.1 34.8 38.9 36.8 39.5 37.4C41.2 39.1 44.2 39.4 45.2 39.1Z" fill="#6D4934"/>
<path d="M43.8 36.7C44.9 36.4 46.6 33 44.8 32.8C41.7 32.3 39.3 33.8 39.6 35.5C39.9 37.2 43 36.9 43.8 36.7Z" fill="#A37F6A"/>
<path d="M24.9 44.5C24.6 43.3 22.4 42.4 21 43C19 43.8 18.1 44.5 18.8 46.8C19 47.6 20 49.4 20.5 49.5C21.2 49.8 22.9 49.9 23.4 49.4C24.9 48 25.1 45.4 24.9 44.5Z" fill="#6D4934"/>
<path d="M23.2 43.6C23 42.7 18.8 44 19.2 45.6C20 48.3 20 48.7 20.8 48.6C22.3 48.2 23.3 44.3 23.2 43.6Z" fill="#A37F6A"/>
<path d="M51.1 25.5C49.9 25.8 49 28 49.6 29.4C50.4 31.4 52.3 31.7 54.4 30.6C56.2 29.7 56.3 26.5 55.8 25.9C54.3 24.4 52 25.3 51.1 25.5Z" fill="#6D4934"/>
<path d="M50.6 26.6C50 27.3 49.5 30.1 51 29.7C53.7 28.9 55.6 26.2 54.4 25.8C52.9 25.3 51.3 25.8 50.6 26.6Z" fill="#A37F6A"/>
<path d="M22.74 16.112L24.72 14.132L26.7 16.112L24.72 18.092L22.74 16.112Z" fill="#6D4934"/>
<path d="M14.706 33.483L16.685 31.503L18.665 33.482L16.686 35.462L14.706 33.483Z" fill="#DDA85F"/>
<path d="M34.698 44.811L36.678 42.831L38.658 44.811L36.678 46.791L34.698 44.811Z" fill="#DDA85F"/>
<path d="M32.038 39.289L34.725 36.602L37.412 39.289L34.725 41.976L32.038 39.289Z" fill="#DDA85F"/>
<path d="M24.696 9.82701L27.383 7.14001L30.07 9.82701L27.383 12.514L24.696 9.82701Z" fill="#DDA85F"/>
<path d="M41.122 46.347L43.102 44.367L45.082 46.347L43.102 48.327L41.122 46.347Z" fill="#6D4934"/>
<path d="M49.076 35.215L51.056 33.235L53.036 35.215L51.056 37.195L49.076 35.215Z" fill="#6D4934"/>
<path d="M41.812 24.637L42.802 23.647L43.792 24.637L42.802 25.627L41.812 24.637Z" fill="#6D4934"/>
<path d="M13.726 38.266L14.716 37.276L15.706 38.266L14.716 39.256L13.726 38.266Z" fill="#6D4934"/>
</svg>
